{"accessors":[{"bufferView":0,"componentType":5126,"count":2401,"max":[64.0,13.908658981323242,128.0],"min":[-128.0,-4.609015464782715,-64.0],"normalized":false,"type":"VEC3"},{"bufferView":1,"componentType":5126,"count":2401,"max":[1.0,0.6704299449920654,0.03341757133603096,1.0],"min":[0.7137767672538757,-0.7003639936447144,-0.05964968726038933,1.0],"normalized":false,"type":"VEC4"},{"bufferView":2,"componentType":5126,"count":2401,"max":[0.6719954013824463,1.0,0.6977307200431824],"min":[-0.6700029373168945,0.6562590003013611,-0.6755116581916809],"normalized":false,"type":"VEC3"},{"bufferView":3,"componentType":5126,"count":2401,"max":[64.0,128.0],"min":[-128.0,-64.0],"normalized":false,"type":"VEC2"},{"bufferView":4,"componentType":5123,"count":13824,"max":[2400],"min":[0],"normalized":false,"type":"SCALAR"}],"asset":{"generator":"Godot Engine v4.6.2.stable.official@71f334935c000924d403448e698df4441130df18","version":"2.0"},"bufferViews":[{"buffer":0,"byteLength":28812,"byteStride":12,"target":34962},{"buffer":0,"byteLength":38416,"byteOffset":28812,"byteStride":16,"target":34962},{"buffer":0,"byteLength":28812,"byteOffset":67228,"byteStride":12,"target":34962},{"buffer":0,"byteLength":19208,"byteOffset":96040,"byteStride":8,"target":34962},{"buffer":0,"byteLength":27648,"byteOffset":115248,"target":34963}],"buffers":[{"byteLength":142896,"uri":"terrainMesh0.bin"}],"extensionsUsed":["GODOT_single_root"],"meshes":[{"primitives":[{"attributes":{"NORMAL":2,"POSITION":0,"TANGENT":1,"TEXCOORD_0":3},"indices":4,"mode":4}]}],"nodes":[{"children":[1],"name":"TerrainMesh"},{"mesh":0,"name":"MeshInstance3D"}],"scene":0,"scenes":[{"nodes":[0]}]}